<?xml version="1.0" standalone="no"?>
<!DOCTYPE svg PUBLIC "-//W3C//DTD SVG 20010904//EN"
 "http://www.w3.org/TR/2001/REC-SVG-20010904/DTD/svg10.dtd">
<svg version="1.0" xmlns="http://www.w3.org/2000/svg"
 width="500.000000pt" height="500.000000pt" viewBox="0 0 500.000000 500.000000"
 preserveAspectRatio="xMidYMid meet">

<g transform="translate(0.000000,500.000000) scale(0.100000,-0.100000)"
fill="#000000" stroke="none">
<path d="M2460 3900 l-375 -127 -3 -307 c-1 -168 -4 -306 -5 -306 -1 0 -77 25
-167 55 -90 30 -168 55 -172 55 -4 0 -8 -362 -8 -804 l0 -804 323 -108 c177
-59 328 -109 335 -112 10 -3 12 159 10 804 l-3 807 -155 52 c-84 28 -150 54
-145 57 6 3 180 61 388 128 l377 124 0 308 c0 240 -3 308 -12 307 -7 -1 -182
-59 -388 -129z"/>
<path d="M2870 2652 l0 -1377 458 -153 c251 -83 461 -152 465 -152 4 0 7 620
7 1378 l0 1377 -458 153 c-251 83 -461 152 -465 152 -4 0 -7 -620 -7 -1378z"/>
<path d="M1455 3186 l-250 -82 -3 -556 -2 -556 260 86 260 87 0 552 c0 304 -3
553 -7 552 -5 -1 -120 -38 -258 -83z"/>
</g>
</svg>
